<svg xmlns="http://www.w3.org/2000/svg" width="112" height="44" viewBox="0 0 112 44">
  <path d="M6 8h79c9 0 17 7 21 16l3 8H6z" fill="#F5F7F6" stroke="#31483D" stroke-width="2" stroke-linejoin="round"/>
  <rect x="12" y="13" width="15" height="11" rx="2" fill="#38554A"/>
  <rect x="32" y="13" width="15" height="11" rx="2" fill="#38554A"/>
  <rect x="52" y="13" width="15" height="11" rx="2" fill="#38554A"/>
  <rect x="73" y="12" width="13" height="20" rx="2" fill="#E0E8E3" stroke="#8A9D92"/>
  <rect x="76" y="15" width="7" height="8" rx="1" fill="#38554A"/>
  <path d="M91 14c4 3 7 6 9 10H90V14z" fill="#38554A"/>
  <path d="M6 34h101" stroke="#31483D" stroke-width="3" stroke-linecap="round"/>
  <circle cx="21" cy="37" r="4" fill="#31483D"/><circle cx="39" cy="37" r="4" fill="#31483D"/>
  <circle cx="78" cy="37" r="4" fill="#31483D"/><circle cx="96" cy="37" r="4" fill="#31483D"/>
  <path d="M37 5h24l5 3H33z" fill="#8A9D92"/>
</svg>
